<svg width="643" height="500" viewBox="0 0 643 500" fill="none" xmlns="http://www.w3.org/2000/svg">
<path fill-rule="evenodd" clip-rule="evenodd" d="M304.672 533.173C304.328 533.174 303.983 533.175 303.638 533.175C248.112 533.175 196.553 516.192 153.871 487.136C152.788 487.161 151.702 487.174 150.613 487.174C74.2871 487.174 12.4131 425.3 12.4131 348.974C12.4131 319.608 21.5723 292.382 37.1898 269.995C37.1842 269.533 37.1798 269.071 37.1765 268.609C14.6938 252.815 0 226.683 0 197.12C0 148.903 39.0881 109.815 87.3057 109.815C87.6134 109.815 87.9207 109.816 88.2277 109.819C136.687 43.3971 215.123 0.238037 303.638 0.238037C374.844 0.238037 439.527 28.1675 487.329 73.6691C493.051 72.9472 498.882 72.5752 504.801 72.5752C581.126 72.5752 643 134.449 643 210.775C643 264.335 612.531 310.779 567.981 333.719C573.171 350.294 575.969 367.927 575.969 386.214C575.969 483.106 497.422 561.652 400.53 561.652C365.156 561.652 332.226 551.183 304.672 533.173Z" fill="#FFFCFC"/>
</svg>
